<mxfile host="65bd71144e">
    <diagram name="第 1 页" id="9sm9V-_68C3-Qy4svXuR">
        <mxGraphModel dx="1084" dy="1090" grid="1" gridSize="10" guides="1" tooltips="1" connect="1" arrows="1" fold="1" page="1" pageScale="1" pageWidth="827" pageHeight="1169" background="#ffffff" math="0" shadow="0">
            <root>
                <mxCell id="0"/>
                <mxCell id="1" parent="0"/>
                <mxCell id="V8K_3CjFL63me8gpBaYt-1" value="" style="rounded=0;whiteSpace=wrap;html=1;fillColor=#e6f4ff;strokeColor=none;fontFamily=Verdana;fontSize=10;" parent="1" vertex="1">
                    <mxGeometry x="40" y="80" width="320" height="960" as="geometry"/>
                </mxCell>
                <mxCell id="V8K_3CjFL63me8gpBaYt-7" value="用戶新增問題卡片" style="rounded=1;whiteSpace=wrap;html=1;fontFamily=Verdana;fontSize=10;fillColor=#FFFFFF;strokeColor=#171717;fontColor=#171717;" parent="V8K_3CjFL63me8gpBaYt-1" vertex="1">
                    <mxGeometry x="40" y="40" width="240" height="40" as="geometry"/>
                </mxCell>
                <mxCell id="39" value="user" style="rounded=1;whiteSpace=wrap;html=1;fontSize=6;fontColor=#171717;fillColor=#E6E6E6;arcSize=50;strokeColor=none;verticalAlign=top;spacing=-5;horizontal=1;" parent="V8K_3CjFL63me8gpBaYt-1" vertex="1">
                    <mxGeometry x="253" y="67.5" width="20" height="7.5" as="geometry"/>
                </mxCell>
                <mxCell id="V8K_3CjFL63me8gpBaYt-2" value="Trello" style="rounded=0;whiteSpace=wrap;html=1;strokeColor=none;fillColor=#0052CC;fontStyle=1;fontColor=#ffffff;fontFamily=Verdana;fontSize=10;" parent="1" vertex="1">
                    <mxGeometry x="40" y="40" width="320" height="40" as="geometry"/>
                </mxCell>
                <mxCell id="V8K_3CjFL63me8gpBaYt-3" value="Core" style="rounded=0;whiteSpace=wrap;html=1;strokeColor=none;fillColor=#FA541C;fontStyle=1;fontColor=#FFFFFF;fontFamily=Verdana;fontSize=10;" parent="1" vertex="1">
                    <mxGeometry x="440" y="40" width="320" height="40" as="geometry"/>
                </mxCell>
                <mxCell id="V8K_3CjFL63me8gpBaYt-4" value="" style="rounded=0;whiteSpace=wrap;html=1;fillColor=#fff2e8;strokeColor=none;fontFamily=Verdana;fontSize=10;" parent="1" vertex="1">
                    <mxGeometry x="440" y="80" width="320" height="960" as="geometry"/>
                </mxCell>
                <mxCell id="V8K_3CjFL63me8gpBaYt-5" value="Database" style="rounded=0;whiteSpace=wrap;html=1;fontStyle=1;fontColor=#FFFFFF;fillColor=#13c2c2;strokeColor=none;fontFamily=Verdana;fontSize=10;" parent="1" vertex="1">
                    <mxGeometry x="840" y="40" width="320" height="40" as="geometry"/>
                </mxCell>
                <mxCell id="V8K_3CjFL63me8gpBaYt-6" value="" style="rounded=0;whiteSpace=wrap;html=1;fillColor=#e6fffb;strokeColor=none;fontFamily=Verdana;fontSize=10;" parent="1" vertex="1">
                    <mxGeometry x="840" y="80" width="320" height="960" as="geometry"/>
                </mxCell>
                <mxCell id="V8K_3CjFL63me8gpBaYt-9" value="" style="edgeStyle=orthogonalEdgeStyle;rounded=0;orthogonalLoop=1;jettySize=auto;html=1;fontFamily=Verdana;fontSize=10;strokeColor=#171717;entryX=0;entryY=0.5;entryDx=0;entryDy=0;" parent="1" source="V8K_3CjFL63me8gpBaYt-7" target="48" edge="1">
                    <mxGeometry relative="1" as="geometry"/>
                </mxCell>
                <mxCell id="V8K_3CjFL63me8gpBaYt-11" style="edgeStyle=orthogonalEdgeStyle;rounded=1;orthogonalLoop=1;jettySize=auto;html=1;fontFamily=Verdana;fontSize=10;strokeColor=#171717;entryX=0.5;entryY=0;entryDx=0;entryDy=0;" parent="1" source="V8K_3CjFL63me8gpBaYt-8" target="41" edge="1">
                    <mxGeometry relative="1" as="geometry"/>
                </mxCell>
                <mxCell id="V8K_3CjFL63me8gpBaYt-8" value="取得問題文本" style="whiteSpace=wrap;html=1;rounded=1;fontFamily=Verdana;fontSize=10;fillColor=#FFFFFF;strokeColor=#171717;fontColor=#171717;" parent="1" vertex="1">
                    <mxGeometry x="480" y="200" width="110" height="40" as="geometry"/>
                </mxCell>
                <mxCell id="16" style="edgeStyle=none;rounded=1;html=1;entryX=0;entryY=0.5;entryDx=0;entryDy=0;strokeColor=#333333;" parent="1" source="V8K_3CjFL63me8gpBaYt-10" target="V8K_3CjFL63me8gpBaYt-28" edge="1">
                    <mxGeometry relative="1" as="geometry"/>
                </mxCell>
                <mxCell id="V8K_3CjFL63me8gpBaYt-10" value="文本 Embedding&lt;br style=&quot;font-size: 10px;&quot;&gt;&lt;font color=&quot;#333333&quot; style=&quot;font-size: 8px;&quot;&gt;paraphrase-multilingual-mpnet-base-v2&lt;/font&gt;" style="whiteSpace=wrap;html=1;rounded=1;fontFamily=Verdana;fontSize=10;fillColor=#FFFFFF;strokeColor=#171717;fontColor=#171717;" parent="1" vertex="1">
                    <mxGeometry x="480" y="440" width="240" height="40" as="geometry"/>
                </mxCell>
                <mxCell id="V8K_3CjFL63me8gpBaYt-19" style="edgeStyle=orthogonalEdgeStyle;rounded=1;orthogonalLoop=1;jettySize=auto;html=1;fontFamily=Verdana;fontSize=10;strokeColor=#171717;" parent="1" source="V8K_3CjFL63me8gpBaYt-14" target="V8K_3CjFL63me8gpBaYt-17" edge="1">
                    <mxGeometry relative="1" as="geometry"/>
                </mxCell>
                <mxCell id="11" style="edgeStyle=none;rounded=1;html=1;entryX=0.5;entryY=0;entryDx=0;entryDy=0;strokeColor=#333333;" parent="1" source="V8K_3CjFL63me8gpBaYt-14" target="V8K_3CjFL63me8gpBaYt-18" edge="1">
                    <mxGeometry relative="1" as="geometry">
                        <Array as="points">
                            <mxPoint x="600" y="580"/>
                            <mxPoint x="665" y="580"/>
                        </Array>
                    </mxGeometry>
                </mxCell>
                <mxCell id="12" style="edgeStyle=none;rounded=1;html=1;strokeColor=#333333;entryX=0;entryY=0.5;entryDx=0;entryDy=0;exitX=1;exitY=0.5;exitDx=0;exitDy=0;" parent="1" source="V8K_3CjFL63me8gpBaYt-18" target="3X4MqjeO4IpV3ZYWQY2A-2" edge="1">
                    <mxGeometry relative="1" as="geometry">
                        <Array as="points">
                            <mxPoint x="790" y="620"/>
                        </Array>
                    </mxGeometry>
                </mxCell>
                <mxCell id="V8K_3CjFL63me8gpBaYt-14" value="取得最相近的 10 筆連結記錄&lt;br&gt;&lt;font style=&quot;font-size: 8px;&quot;&gt;過濾&amp;nbsp;distance &amp;lt; 2.5&lt;/font&gt;" style="whiteSpace=wrap;html=1;rounded=1;fontFamily=Verdana;fontSize=10;fillColor=#FFFFFF;strokeColor=#171717;fontColor=#171717;" parent="1" vertex="1">
                    <mxGeometry x="480" y="520" width="240" height="40" as="geometry"/>
                </mxCell>
                <mxCell id="V8K_3CjFL63me8gpBaYt-24" style="edgeStyle=orthogonalEdgeStyle;rounded=1;orthogonalLoop=1;jettySize=auto;html=1;fontFamily=Verdana;fontSize=10;strokeColor=#171717;" parent="1" source="V8K_3CjFL63me8gpBaYt-17" target="V8K_3CjFL63me8gpBaYt-21" edge="1">
                    <mxGeometry relative="1" as="geometry"/>
                </mxCell>
                <mxCell id="V8K_3CjFL63me8gpBaYt-17" value="利用 QA Model &lt;br style=&quot;font-size: 10px;&quot;&gt;生成回答" style="whiteSpace=wrap;html=1;rounded=1;fontFamily=Verdana;fontSize=10;fillColor=#FFFFFF;strokeColor=#171717;fontColor=#171717;" parent="1" vertex="1">
                    <mxGeometry x="480" y="600" width="110" height="40" as="geometry"/>
                </mxCell>
                <mxCell id="V8K_3CjFL63me8gpBaYt-18" value="文字雲圖片找尋" style="whiteSpace=wrap;html=1;rounded=1;fontFamily=Verdana;fontSize=10;fillColor=#FFFFFF;strokeColor=#171717;fontColor=#171717;" parent="1" vertex="1">
                    <mxGeometry x="610" y="600" width="110" height="40" as="geometry"/>
                </mxCell>
                <mxCell id="V8K_3CjFL63me8gpBaYt-23" style="edgeStyle=orthogonalEdgeStyle;rounded=1;orthogonalLoop=1;jettySize=auto;html=1;entryX=0.5;entryY=0;entryDx=0;entryDy=0;fontFamily=Verdana;fontSize=10;strokeColor=#171717;" parent="1" source="V8K_3CjFL63me8gpBaYt-21" target="V8K_3CjFL63me8gpBaYt-22" edge="1">
                    <mxGeometry relative="1" as="geometry"/>
                </mxCell>
                <mxCell id="V8K_3CjFL63me8gpBaYt-21" value="組合資料" style="whiteSpace=wrap;html=1;rounded=1;fontFamily=Verdana;fontSize=10;fillColor=#FFFFFF;strokeColor=#171717;fontColor=#171717;" parent="1" vertex="1">
                    <mxGeometry x="480" y="680" width="240" height="40" as="geometry"/>
                </mxCell>
                <mxCell id="V8K_3CjFL63me8gpBaYt-27" style="edgeStyle=orthogonalEdgeStyle;rounded=0;orthogonalLoop=1;jettySize=auto;html=1;fontFamily=Verdana;fontSize=10;strokeColor=#171717;" parent="1" source="V8K_3CjFL63me8gpBaYt-22" target="V8K_3CjFL63me8gpBaYt-26" edge="1">
                    <mxGeometry relative="1" as="geometry"/>
                </mxCell>
                <mxCell id="3" style="edgeStyle=none;rounded=1;html=1;entryX=1;entryY=0.5;entryDx=0;entryDy=0;exitX=0;exitY=0.5;exitDx=0;exitDy=0;strokeColor=#333333;" parent="1" source="V8K_3CjFL63me8gpBaYt-22" target="V8K_3CjFL63me8gpBaYt-38" edge="1">
                    <mxGeometry relative="1" as="geometry">
                        <Array as="points">
                            <mxPoint x="400" y="780"/>
                        </Array>
                    </mxGeometry>
                </mxCell>
                <mxCell id="V8K_3CjFL63me8gpBaYt-22" value="新增留言到 卡片&lt;br style=&quot;font-size: 10px;&quot;&gt;&lt;font style=&quot;font-size: 8px;&quot;&gt;（最多 20 筆相關資料）&lt;/font&gt;" style="whiteSpace=wrap;html=1;rounded=1;fontFamily=Verdana;fontSize=10;fillColor=#FFFFFF;strokeColor=#171717;fontColor=#171717;" parent="1" vertex="1">
                    <mxGeometry x="480" y="760" width="240" height="40" as="geometry"/>
                </mxCell>
                <mxCell id="V8K_3CjFL63me8gpBaYt-36" style="edgeStyle=orthogonalEdgeStyle;rounded=1;orthogonalLoop=1;jettySize=auto;html=1;fontFamily=Verdana;fontSize=10;strokeColor=#171717;entryX=1;entryY=0.5;entryDx=0;entryDy=0;" parent="1" source="V8K_3CjFL63me8gpBaYt-26" target="V8K_3CjFL63me8gpBaYt-35" edge="1">
                    <mxGeometry relative="1" as="geometry">
                        <Array as="points">
                            <mxPoint x="320" y="860"/>
                        </Array>
                    </mxGeometry>
                </mxCell>
                <mxCell id="29" style="edgeStyle=none;rounded=1;html=1;entryX=0.5;entryY=0;entryDx=0;entryDy=0;strokeColor=#333333;" parent="1" source="V8K_3CjFL63me8gpBaYt-26" target="24" edge="1">
                    <mxGeometry relative="1" as="geometry"/>
                </mxCell>
                <mxCell id="V8K_3CjFL63me8gpBaYt-26" value="&lt;div&gt;多筆文本&lt;/div&gt;&lt;div&gt;&lt;font style=&quot;font-size: 8px;&quot;&gt;組合成新文字雲&lt;/font&gt;&lt;/div&gt;" style="whiteSpace=wrap;html=1;rounded=1;fontFamily=Verdana;fontSize=10;fillColor=#FFFFFF;strokeColor=#171717;fontColor=#171717;" parent="1" vertex="1">
                    <mxGeometry x="480" y="840" width="240" height="40" as="geometry"/>
                </mxCell>
                <mxCell id="17" style="edgeStyle=none;rounded=1;html=1;exitX=0;exitY=0.75;exitDx=0;exitDy=0;entryX=0.5;entryY=0;entryDx=0;entryDy=0;strokeColor=#333333;" parent="1" source="V8K_3CjFL63me8gpBaYt-28" target="V8K_3CjFL63me8gpBaYt-14" edge="1">
                    <mxGeometry relative="1" as="geometry">
                        <Array as="points">
                            <mxPoint x="800" y="470"/>
                            <mxPoint x="800" y="500"/>
                            <mxPoint x="600" y="500"/>
                        </Array>
                    </mxGeometry>
                </mxCell>
                <mxCell id="21" style="edgeStyle=none;rounded=1;html=1;strokeColor=#333333;entryX=-0.029;entryY=0.243;entryDx=0;entryDy=0;entryPerimeter=0;" parent="1" source="V8K_3CjFL63me8gpBaYt-28" target="13" edge="1">
                    <mxGeometry relative="1" as="geometry">
                        <mxPoint x="1180" y="460" as="targetPoint"/>
                    </mxGeometry>
                </mxCell>
                <mxCell id="V8K_3CjFL63me8gpBaYt-28" value="Vector Search ( Top 10 )&lt;br&gt;IP by `&lt;span style=&quot;color: rgb(51, 51, 51); text-align: left;&quot;&gt;article_vector`&lt;/span&gt;" style="whiteSpace=wrap;html=1;rounded=1;fontFamily=Verdana;fontSize=10;fillColor=#FFFFFF;strokeColor=#171717;fontColor=#171717;" parent="1" vertex="1">
                    <mxGeometry x="860" y="440" width="280" height="40" as="geometry"/>
                </mxCell>
                <mxCell id="V8K_3CjFL63me8gpBaYt-31" value="(mongodb)&lt;br&gt;----------------------&lt;br&gt;auto_id&lt;font&gt; (_id) PK&lt;/font&gt;&lt;br&gt;key&lt;font&gt; (str)&lt;/font&gt;&lt;br&gt;value&lt;font&gt; (str)&lt;/font&gt;&lt;font&gt;&lt;br&gt;&lt;/font&gt;" style="whiteSpace=wrap;html=1;rounded=0;fontFamily=Verdana;fontSize=10;align=left;spacingLeft=8;spacing=0;spacingTop=8;verticalAlign=top;shadow=1;fillColor=#FFFFFF;fontColor=#333333;strokeColor=#171717;" parent="1" vertex="1">
                    <mxGeometry x="1270" y="295" width="210" height="90" as="geometry"/>
                </mxCell>
                <mxCell id="V8K_3CjFL63me8gpBaYt-34" value="Webhook&lt;br&gt;&lt;br&gt;createCard" style="text;html=1;align=center;verticalAlign=middle;whiteSpace=wrap;rounded=0;fontFamily=Verdana;fontSize=10;fontColor=#171717;" parent="1" vertex="1">
                    <mxGeometry x="368" y="125" width="60" height="30" as="geometry"/>
                </mxCell>
                <mxCell id="V8K_3CjFL63me8gpBaYt-35" value="渲染新封面（文字雲）" style="whiteSpace=wrap;html=1;rounded=1;fontFamily=Verdana;fontSize=10;fillColor=#FFFFFF;strokeColor=#171717;fontColor=#171717;" parent="1" vertex="1">
                    <mxGeometry x="80" y="840" width="240" height="40" as="geometry"/>
                </mxCell>
                <mxCell id="V8K_3CjFL63me8gpBaYt-37" value="API&lt;br&gt;&lt;br&gt;&amp;nbsp;" style="text;html=1;strokeColor=none;fillColor=none;align=center;verticalAlign=middle;whiteSpace=wrap;rounded=0;fontFamily=Verdana;fontSize=10;fontColor=#171717;" parent="1" vertex="1">
                    <mxGeometry x="369" y="845" width="60" height="30" as="geometry"/>
                </mxCell>
                <mxCell id="V8K_3CjFL63me8gpBaYt-38" value="增加留言" style="whiteSpace=wrap;html=1;rounded=1;fontFamily=Verdana;fontSize=10;fillColor=#FFFFFF;strokeColor=#171717;fontColor=#171717;" parent="1" vertex="1">
                    <mxGeometry x="80" y="760" width="240" height="40" as="geometry"/>
                </mxCell>
                <mxCell id="V8K_3CjFL63me8gpBaYt-43" value="(mongodb)&lt;br&gt;----------------------&lt;br&gt;auto_id&lt;font&gt; (_id) PK&lt;br&gt;&lt;/font&gt;link_id&amp;nbsp;(str)&lt;br&gt;title&amp;nbsp;(str)&lt;br&gt;url&lt;font&gt; (str 200)&lt;/font&gt;&lt;br&gt;content&amp;nbsp;&lt;font&gt;(str)&lt;/font&gt;&lt;br&gt;impoortMilvus&amp;nbsp;&lt;font&gt;(str)&lt;/font&gt;&lt;br&gt;values&amp;nbsp;&lt;font&gt;(str)&lt;/font&gt;&lt;br&gt;tag&amp;nbsp;&lt;font&gt;(str)&lt;/font&gt;&lt;br&gt;tf&amp;nbsp;&lt;font&gt;(str)&lt;/font&gt;&lt;br&gt;class&amp;nbsp;&lt;font&gt;(str)&lt;/font&gt;&lt;br&gt;wordcloud_path&lt;font style=&quot;border-color: var(--border-color);&quot;&gt;&amp;nbsp;(str)&lt;/font&gt;&lt;font&gt;&lt;br&gt;&lt;/font&gt;" style="whiteSpace=wrap;html=1;rounded=0;fontFamily=Verdana;fontSize=10;spacingLeft=8;align=left;verticalAlign=top;spacingTop=8;spacing=0;glass=0;shadow=1;fillColor=#FFFFFF;fontColor=#333333;strokeColor=#171717;" parent="1" vertex="1">
                    <mxGeometry x="1270" y="610" width="210" height="180" as="geometry"/>
                </mxCell>
                <mxCell id="20" style="edgeStyle=none;rounded=1;html=1;entryX=-0.007;entryY=0.561;entryDx=0;entryDy=0;entryPerimeter=0;strokeColor=#333333;exitX=1;exitY=0.5;exitDx=0;exitDy=0;" parent="1" source="3X4MqjeO4IpV3ZYWQY2A-2" target="FDVRgcC-wKnDVl125Zgy-4" edge="1">
                    <mxGeometry relative="1" as="geometry">
                        <Array as="points">
                            <mxPoint x="1180" y="620"/>
                            <mxPoint x="1180" y="645"/>
                        </Array>
                    </mxGeometry>
                </mxCell>
                <mxCell id="22" style="edgeStyle=none;rounded=1;html=1;entryX=0.5;entryY=0;entryDx=0;entryDy=0;strokeColor=#333333;exitX=0;exitY=0.75;exitDx=0;exitDy=0;" parent="1" source="3X4MqjeO4IpV3ZYWQY2A-2" target="V8K_3CjFL63me8gpBaYt-21" edge="1">
                    <mxGeometry relative="1" as="geometry">
                        <Array as="points">
                            <mxPoint x="800" y="630"/>
                            <mxPoint x="800" y="660"/>
                            <mxPoint x="600" y="660"/>
                        </Array>
                    </mxGeometry>
                </mxCell>
                <mxCell id="3X4MqjeO4IpV3ZYWQY2A-2" value="Article Content Search&lt;br&gt;by `&lt;span style=&quot;color: rgb(51, 51, 51); text-align: left;&quot;&gt;link_id`&lt;/span&gt;" style="whiteSpace=wrap;html=1;rounded=1;fontFamily=Verdana;fontSize=10;fillColor=#FFFFFF;strokeColor=#171717;fontColor=#171717;" parent="1" vertex="1">
                    <mxGeometry x="860" y="600" width="280" height="40" as="geometry"/>
                </mxCell>
                <mxCell id="V8K_3CjFL63me8gpBaYt-40" value="API&lt;br&gt;&lt;br&gt;&amp;nbsp;" style="text;html=1;strokeColor=none;fillColor=none;align=center;verticalAlign=middle;whiteSpace=wrap;rounded=0;fontFamily=Verdana;fontSize=10;rotation=0;fontColor=#171717;" parent="1" vertex="1">
                    <mxGeometry x="364" y="763" width="70" height="30" as="geometry"/>
                </mxCell>
                <mxCell id="FDVRgcC-wKnDVl125Zgy-2" value="&lt;font style=&quot;font-size: 12px;&quot;&gt;模糊文本&lt;/font&gt;&lt;br&gt;資料庫" style="shape=cylinder3;whiteSpace=wrap;html=1;boundedLbl=1;backgroundOutline=1;size=15;fillColor=#FFFFFF;strokeColor=#171717;fontColor=#171717;fontFamily=Helvetica;" parent="1" vertex="1">
                    <mxGeometry x="1200" y="285" width="60" height="80" as="geometry"/>
                </mxCell>
                <mxCell id="FDVRgcC-wKnDVl125Zgy-4" value="文章連結資料庫" style="shape=cylinder3;whiteSpace=wrap;html=1;boundedLbl=1;backgroundOutline=1;size=15;fillColor=#FFFFFF;strokeColor=#171717;fontColor=#171717;" parent="1" vertex="1">
                    <mxGeometry x="1200" y="600" width="60" height="80" as="geometry"/>
                </mxCell>
                <mxCell id="FDVRgcC-wKnDVl125Zgy-9" style="edgeStyle=orthogonalEdgeStyle;rounded=1;orthogonalLoop=1;jettySize=auto;html=1;entryX=-0.005;entryY=0.602;entryDx=0;entryDy=0;entryPerimeter=0;strokeColor=#171717;" parent="1" source="FDVRgcC-wKnDVl125Zgy-5" target="FDVRgcC-wKnDVl125Zgy-6" edge="1">
                    <mxGeometry relative="1" as="geometry">
                        <Array as="points">
                            <mxPoint x="1180" y="860"/>
                            <mxPoint x="1180" y="888"/>
                            <mxPoint x="1200" y="888"/>
                        </Array>
                    </mxGeometry>
                </mxCell>
                <mxCell id="FDVRgcC-wKnDVl125Zgy-5" value="System Successful Record" style="whiteSpace=wrap;html=1;rounded=1;fontFamily=Verdana;fontSize=10;fillColor=#FFFFFF;strokeColor=#171717;fontColor=#171717;" parent="1" vertex="1">
                    <mxGeometry x="860" y="840" width="280" height="40" as="geometry"/>
                </mxCell>
                <mxCell id="FDVRgcC-wKnDVl125Zgy-6" value="系統紀錄資料庫" style="shape=cylinder3;whiteSpace=wrap;html=1;boundedLbl=1;backgroundOutline=1;size=15;fillColor=#FFFFFF;strokeColor=#171717;fontColor=#171717;" parent="1" vertex="1">
                    <mxGeometry x="1200" y="840" width="60" height="80" as="geometry"/>
                </mxCell>
                <mxCell id="FDVRgcC-wKnDVl125Zgy-7" value="(mongodb)&lt;br&gt;----------------------&lt;br&gt;auto_id&lt;font&gt; (_id) PK&lt;/font&gt;&lt;br&gt;datatime&lt;br&gt;card_id&lt;font&gt; (str) Trello Card ID&lt;br&gt;&lt;/font&gt;state&lt;font&gt; (boolean)&lt;/font&gt;&lt;br&gt;msg&lt;font&gt; (str)&lt;br&gt;more_info (dict)&lt;br&gt;&lt;/font&gt;" style="whiteSpace=wrap;html=1;rounded=0;fontFamily=Verdana;fontSize=10;spacingLeft=8;align=left;verticalAlign=top;spacingTop=8;spacing=0;glass=0;shadow=1;fillColor=#FFFFFF;fontColor=#333333;strokeColor=#171717;" parent="1" vertex="1">
                    <mxGeometry x="1270" y="850" width="210" height="123" as="geometry"/>
                </mxCell>
                <mxCell id="FDVRgcC-wKnDVl125Zgy-10" style="edgeStyle=orthogonalEdgeStyle;rounded=1;orthogonalLoop=1;jettySize=auto;html=1;entryX=-0.005;entryY=0.6;entryDx=0;entryDy=0;entryPerimeter=0;strokeColor=#171717;" parent="1" source="FDVRgcC-wKnDVl125Zgy-8" target="FDVRgcC-wKnDVl125Zgy-6" edge="1">
                    <mxGeometry relative="1" as="geometry">
                        <mxPoint x="1190" y="810" as="targetPoint"/>
                        <Array as="points">
                            <mxPoint x="1180" y="940"/>
                            <mxPoint x="1180" y="888"/>
                        </Array>
                    </mxGeometry>
                </mxCell>
                <mxCell id="FDVRgcC-wKnDVl125Zgy-8" value="System Fail Record" style="whiteSpace=wrap;html=1;rounded=1;fontFamily=Verdana;fontSize=10;fillColor=#FFFFFF;strokeColor=#171717;fontColor=#171717;" parent="1" vertex="1">
                    <mxGeometry x="860" y="920" width="280" height="40" as="geometry"/>
                </mxCell>
                <mxCell id="FDVRgcC-wKnDVl125Zgy-17" style="edgeStyle=orthogonalEdgeStyle;rounded=1;orthogonalLoop=1;jettySize=auto;html=1;entryX=0;entryY=0.5;entryDx=0;entryDy=0;strokeColor=#171717;exitX=1;exitY=0.5;exitDx=0;exitDy=0;" parent="1" source="FDVRgcC-wKnDVl125Zgy-16" target="FDVRgcC-wKnDVl125Zgy-5" edge="1">
                    <mxGeometry relative="1" as="geometry">
                        <Array as="points"/>
                    </mxGeometry>
                </mxCell>
                <mxCell id="FDVRgcC-wKnDVl125Zgy-18" style="edgeStyle=orthogonalEdgeStyle;rounded=0;orthogonalLoop=1;jettySize=auto;html=1;entryX=0;entryY=0.5;entryDx=0;entryDy=0;strokeColor=#171717;" parent="1" source="FDVRgcC-wKnDVl125Zgy-16" target="FDVRgcC-wKnDVl125Zgy-8" edge="1">
                    <mxGeometry relative="1" as="geometry">
                        <Array as="points">
                            <mxPoint x="800" y="860"/>
                        </Array>
                    </mxGeometry>
                </mxCell>
                <mxCell id="FDVRgcC-wKnDVl125Zgy-16" value="成功？" style="rhombus;whiteSpace=wrap;html=1;fontSize=6;fillColor=#FFFFFF;strokeColor=#171717;fontColor=#171717;" parent="1" vertex="1">
                    <mxGeometry x="770" y="840" width="60" height="40" as="geometry"/>
                </mxCell>
                <mxCell id="8" style="edgeStyle=none;rounded=1;html=1;strokeColor=#333333;" parent="1" source="2" target="18" edge="1">
                    <mxGeometry relative="1" as="geometry"/>
                </mxCell>
                <mxCell id="2" value="文本 斷詞清洗與模糊化搜尋&lt;br&gt;&lt;font style=&quot;font-size: 8px;&quot; color=&quot;#333333&quot;&gt;MONPA 斷詞、正則式與文本替換&lt;/font&gt;" style="whiteSpace=wrap;html=1;rounded=1;fontFamily=Verdana;fontSize=10;fillColor=#FFFFFF;strokeColor=#171717;fontColor=#171717;" parent="1" vertex="1">
                    <mxGeometry x="480" y="360" width="240" height="40" as="geometry"/>
                </mxCell>
                <mxCell id="13" value="文章連結資料庫" style="shape=cylinder3;whiteSpace=wrap;html=1;boundedLbl=1;backgroundOutline=1;size=15;fillColor=#FFFFFF;strokeColor=#171717;fontColor=#171717;fontFamily=Helvetica;" parent="1" vertex="1">
                    <mxGeometry x="1200" y="440" width="60" height="80" as="geometry"/>
                </mxCell>
                <mxCell id="14" value="(Milvus)&lt;br&gt;----------------------&lt;br&gt;auto_id&lt;font&gt; (_id) PK&lt;/font&gt;&lt;br&gt;web_url&lt;font&gt; (str 200)&lt;/font&gt;&lt;br&gt;article_vector&lt;font&gt; (float array 768)&lt;/font&gt;&lt;br&gt;track_article&lt;font&gt; (str 50) [文章資料庫_id]&lt;br&gt;&lt;/font&gt;" style="whiteSpace=wrap;html=1;rounded=0;fontFamily=Verdana;fontSize=10;align=left;spacingLeft=8;spacing=0;spacingTop=8;verticalAlign=top;shadow=1;fillColor=#FFFFFF;fontColor=#333333;strokeColor=#171717;" parent="1" vertex="1">
                    <mxGeometry x="1270" y="450" width="210" height="100" as="geometry"/>
                </mxCell>
                <mxCell id="19" style="edgeStyle=none;rounded=1;html=1;entryX=0.5;entryY=0;entryDx=0;entryDy=0;strokeColor=#333333;exitX=0;exitY=0.75;exitDx=0;exitDy=0;" parent="1" source="18" target="V8K_3CjFL63me8gpBaYt-10" edge="1">
                    <mxGeometry relative="1" as="geometry">
                        <Array as="points">
                            <mxPoint x="800" y="390"/>
                            <mxPoint x="800" y="420"/>
                            <mxPoint x="600" y="420"/>
                        </Array>
                    </mxGeometry>
                </mxCell>
                <mxCell id="23" style="edgeStyle=none;rounded=1;html=1;entryX=0;entryY=0.5;entryDx=0;entryDy=0;entryPerimeter=0;strokeColor=#333333;fontFamily=Helvetica;fontSize=12;exitX=1;exitY=0.5;exitDx=0;exitDy=0;" parent="1" source="18" target="FDVRgcC-wKnDVl125Zgy-2" edge="1">
                    <mxGeometry relative="1" as="geometry">
                        <Array as="points">
                            <mxPoint x="1180" y="380"/>
                            <mxPoint x="1180" y="330"/>
                        </Array>
                    </mxGeometry>
                </mxCell>
                <mxCell id="18" value="模糊文本 Search&lt;br&gt;by `key`" style="whiteSpace=wrap;html=1;rounded=1;fontFamily=Verdana;fontSize=10;fillColor=#FFFFFF;strokeColor=#171717;fontColor=#171717;" parent="1" vertex="1">
                    <mxGeometry x="860" y="360" width="280" height="40" as="geometry"/>
                </mxCell>
                <mxCell id="31" style="edgeStyle=none;rounded=1;html=1;entryX=0;entryY=0.5;entryDx=0;entryDy=0;strokeColor=#333333;exitX=1;exitY=0.5;exitDx=0;exitDy=0;" parent="1" source="24" target="FDVRgcC-wKnDVl125Zgy-16" edge="1">
                    <mxGeometry relative="1" as="geometry">
                        <Array as="points">
                            <mxPoint x="740" y="940"/>
                            <mxPoint x="740" y="860"/>
                        </Array>
                    </mxGeometry>
                </mxCell>
                <mxCell id="24" value="&lt;div&gt;修改標題&lt;/div&gt;&lt;div&gt;&lt;font style=&quot;font-size: 8px;&quot;&gt;「已完成」原標題&lt;/font&gt;&lt;/div&gt;" style="whiteSpace=wrap;html=1;rounded=1;fontFamily=Verdana;fontSize=10;fillColor=#FFFFFF;strokeColor=#171717;fontColor=#171717;" parent="1" vertex="1">
                    <mxGeometry x="480" y="920" width="240" height="40" as="geometry"/>
                </mxCell>
                <mxCell id="26" value="渲染新標題" style="whiteSpace=wrap;html=1;rounded=1;fontFamily=Verdana;fontSize=10;fillColor=#FFFFFF;strokeColor=#171717;fontColor=#171717;" parent="1" vertex="1">
                    <mxGeometry x="80" y="920" width="240" height="40" as="geometry"/>
                </mxCell>
                <mxCell id="27" style="edgeStyle=orthogonalEdgeStyle;rounded=1;orthogonalLoop=1;jettySize=auto;html=1;fontFamily=Verdana;fontSize=10;strokeColor=#171717;entryX=1;entryY=0.5;entryDx=0;entryDy=0;exitX=0;exitY=0.5;exitDx=0;exitDy=0;" parent="1" source="24" target="26" edge="1">
                    <mxGeometry relative="1" as="geometry">
                        <Array as="points">
                            <mxPoint x="400" y="940"/>
                            <mxPoint x="400" y="940"/>
                        </Array>
                        <mxPoint x="480" y="929.9999999999998" as="sourcePoint"/>
                        <mxPoint x="320" y="930" as="targetPoint"/>
                    </mxGeometry>
                </mxCell>
                <mxCell id="28" value="API&lt;br&gt;&lt;br&gt;&amp;nbsp;" style="text;html=1;strokeColor=none;fillColor=none;align=center;verticalAlign=middle;whiteSpace=wrap;rounded=0;fontFamily=Verdana;fontSize=10;fontColor=#171717;" parent="1" vertex="1">
                    <mxGeometry x="369" y="925" width="60" height="30" as="geometry"/>
                </mxCell>
                <mxCell id="51" style="edgeStyle=none;rounded=1;html=1;entryX=0.5;entryY=0;entryDx=0;entryDy=0;strokeColor=#171717;fontSize=8;fontColor=#171717;startArrow=none;startFill=0;endArrow=classic;endFill=1;" parent="1" source="41" target="2" edge="1">
                    <mxGeometry relative="1" as="geometry"/>
                </mxCell>
                <mxCell id="41" value="&lt;div&gt;修改標題&lt;/div&gt;&lt;div&gt;&lt;font style=&quot;font-size: 8px;&quot;&gt;「進行中」原標題&lt;/font&gt;&lt;/div&gt;" style="whiteSpace=wrap;html=1;rounded=1;fontFamily=Verdana;fontSize=10;fillColor=#FFFFFF;strokeColor=#171717;fontColor=#171717;" parent="1" vertex="1">
                    <mxGeometry x="480" y="280" width="240" height="40" as="geometry"/>
                </mxCell>
                <mxCell id="42" value="API&lt;br&gt;&lt;br&gt;&amp;nbsp;" style="text;html=1;strokeColor=none;fillColor=none;align=center;verticalAlign=middle;whiteSpace=wrap;rounded=0;fontFamily=Verdana;fontSize=10;fontColor=#171717;" parent="1" vertex="1">
                    <mxGeometry x="368" y="285" width="60" height="30" as="geometry"/>
                </mxCell>
                <mxCell id="43" style="edgeStyle=orthogonalEdgeStyle;rounded=1;orthogonalLoop=1;jettySize=auto;html=1;fontFamily=Verdana;fontSize=10;strokeColor=#171717;entryX=1;entryY=0.5;entryDx=0;entryDy=0;exitX=0;exitY=0.5;exitDx=0;exitDy=0;" parent="1" source="41" target="44" edge="1">
                    <mxGeometry relative="1" as="geometry">
                        <Array as="points">
                            <mxPoint x="399" y="300"/>
                            <mxPoint x="399" y="300"/>
                        </Array>
                        <mxPoint x="479" y="289.9999999999998" as="sourcePoint"/>
                        <mxPoint x="319" y="290" as="targetPoint"/>
                    </mxGeometry>
                </mxCell>
                <mxCell id="44" value="渲染新標題" style="whiteSpace=wrap;html=1;rounded=1;fontFamily=Verdana;fontSize=10;fillColor=#FFFFFF;strokeColor=#171717;fontColor=#171717;" parent="1" vertex="1">
                    <mxGeometry x="79" y="280" width="240" height="40" as="geometry"/>
                </mxCell>
                <mxCell id="50" style="edgeStyle=none;rounded=1;html=1;strokeColor=#171717;fontSize=8;fontColor=#171717;startArrow=none;startFill=0;endArrow=classic;endFill=1;entryX=0.5;entryY=0;entryDx=0;entryDy=0;" parent="1" source="48" target="V8K_3CjFL63me8gpBaYt-8" edge="1">
                    <mxGeometry relative="1" as="geometry">
                        <Array as="points">
                            <mxPoint x="600" y="180"/>
                            <mxPoint x="535" y="180"/>
                        </Array>
                    </mxGeometry>
                </mxCell>
                <mxCell id="53" style="edgeStyle=none;rounded=1;html=1;entryX=0.5;entryY=0;entryDx=0;entryDy=0;strokeColor=#171717;fontSize=8;fontColor=#171717;startArrow=none;startFill=0;endArrow=classic;endFill=1;exitX=0.5;exitY=1;exitDx=0;exitDy=0;" parent="1" source="48" target="52" edge="1">
                    <mxGeometry relative="1" as="geometry">
                        <Array as="points">
                            <mxPoint x="600" y="180"/>
                            <mxPoint x="665" y="180"/>
                        </Array>
                    </mxGeometry>
                </mxCell>
                <mxCell id="48" value="過濾規則&lt;br&gt;&lt;font style=&quot;font-size: 8px;&quot;&gt;關鍵字過濾&lt;/font&gt;" style="whiteSpace=wrap;html=1;rounded=1;fontFamily=Verdana;fontSize=10;fillColor=#FFFFFF;strokeColor=#171717;fontColor=#171717;" parent="1" vertex="1">
                    <mxGeometry x="480" y="120" width="240" height="40" as="geometry"/>
                </mxCell>
                <mxCell id="52" value="忽略訊息" style="whiteSpace=wrap;html=1;rounded=1;fontFamily=Verdana;fontSize=10;fillColor=#FFFFFF;strokeColor=#171717;fontColor=#171717;" parent="1" vertex="1">
                    <mxGeometry x="610" y="200" width="110" height="40" as="geometry"/>
                </mxCell>
                <mxCell id="54" value="符合" style="text;html=1;strokeColor=none;fillColor=none;align=center;verticalAlign=middle;whiteSpace=wrap;rounded=0;fontSize=8;fontColor=#171717;" parent="1" vertex="1">
                    <mxGeometry x="536" y="159" width="60" height="30" as="geometry"/>
                </mxCell>
                <mxCell id="55" value="不符合" style="text;html=1;strokeColor=none;fillColor=none;align=center;verticalAlign=middle;whiteSpace=wrap;rounded=0;fontSize=8;fontColor=#171717;" parent="1" vertex="1">
                    <mxGeometry x="605" y="159" width="60" height="30" as="geometry"/>
                </mxCell>
            </root>
        </mxGraphModel>
    </diagram>
</mxfile>